<?xml version="1.0" encoding="UTF-8" standalone="no"?>
<!DOCTYPE svg PUBLIC "-//W3C//DTD SVG 20010904//EN"
              "http://www.w3.org/TR/2001/REC-SVG-20010904/DTD/svg10.dtd">

<svg xmlns="http://www.w3.org/2000/svg"
     width="75.1588mm" height="684.898mm"
     viewBox="0 0 213 1941">
  <path id="パス"
        fill="none" stroke="black" stroke-width="1"
        d="M 58.88,65.73
           C 58.88,65.73 177.88,65.73 177.88,65.73
             177.88,65.73 177.88,173.73 177.88,173.73
             177.88,173.73 156.15,173.73 156.15,173.73
             156.15,173.73 156.15,85.55 156.15,85.55
             156.15,85.55 128.88,85.55 128.88,85.55
             128.88,85.55 128.88,173.73 128.88,173.73
             128.88,173.73 107.15,173.73 107.15,173.73
             107.15,173.73 107.15,85.55 107.15,85.55
             107.15,85.55 80.62,85.55 80.62,85.55
             80.62,85.55 80.62,173.73 80.62,173.73
             80.62,173.73 58.88,173.73 58.88,173.73
             58.88,173.73 58.88,65.73 58.88,65.73 Z
           M 106.79,255.52
           C 106.79,255.52 106.79,234.52 106.79,234.52
             106.79,234.52 128.53,234.52 128.53,234.52
             128.53,234.52 128.53,255.52 128.53,255.52
             128.53,255.52 106.79,255.52 106.79,255.52 Z
           M 106.79,383.52
           C 106.79,383.52 106.79,275.52 106.79,275.52
             106.79,275.52 128.53,275.52 128.53,275.52
             128.53,275.52 128.53,383.52 128.53,383.52
             128.53,383.52 106.79,383.52 106.79,383.52 Z
           M 151.61,512.05
           C 151.61,512.05 151.61,423.88 151.61,423.88
             151.61,423.88 173.34,423.88 173.34,423.88
             173.34,423.88 173.34,570.88 173.34,570.88
             173.34,570.88 63.61,570.88 63.61,570.88
             63.61,570.88 63.61,551.05 63.61,551.05
             63.61,551.05 151.61,551.05 151.61,551.05
             151.61,551.05 151.61,531.88 151.61,531.88
             151.61,531.88 63.61,531.88 63.61,531.88
             63.61,531.88 63.61,423.88 63.61,423.88
             63.61,423.88 85.34,423.88 85.34,423.88
             85.34,423.88 85.34,512.05 85.34,512.05
             85.34,512.05 151.61,512.05 151.61,512.05 Z
           M 63.61,652.55
           C 63.61,652.55 63.61,632.73 63.61,632.73
             63.61,632.73 173.34,632.73 173.34,632.73
             173.34,632.73 173.34,740.73 173.34,740.73
             173.34,740.73 63.61,740.73 63.61,740.73
             63.61,740.73 63.61,676.73 63.61,676.73
             63.61,676.73 151.61,676.73 151.61,676.73
             151.61,676.73 151.61,652.55 151.61,652.55
             151.61,652.55 63.61,652.55 63.61,652.55 Z
           M 85.34,720.90
           C 85.34,720.90 151.61,720.90 151.61,720.90
             151.61,720.90 151.61,696.55 151.61,696.55
             151.61,696.55 85.34,696.55 85.34,696.55
             85.34,696.55 85.34,720.90 85.34,720.90 Z
           M 58.39,821.73
           C 58.39,821.73 178.39,821.73 178.39,821.73
             178.39,821.73 178.39,841.55 178.39,841.55
             178.39,841.55 129.13,841.55 129.13,841.55
             129.13,841.55 129.13,929.73 129.13,929.73
             129.13,929.73 107.39,929.73 107.39,929.73
             107.39,929.73 107.39,841.55 107.39,841.55
             107.39,841.55 58.39,841.55 58.39,841.55
             58.39,841.55 58.39,821.73 58.39,821.73 Z
           M 63.61,1030.55
           C 63.61,1030.55 63.61,1010.73 63.61,1010.73
             63.61,1010.73 173.34,1010.73 173.34,1010.73
             173.34,1010.73 173.34,1118.73 173.34,1118.73
             173.34,1118.73 63.61,1118.73 63.61,1118.73
             63.61,1118.73 63.61,1054.73 63.61,1054.73
             63.61,1054.73 151.61,1054.73 151.61,1054.73
             151.61,1054.73 151.61,1030.55 151.61,1030.55
             151.61,1030.55 63.61,1030.55 63.61,1030.55 Z
           M 85.34,1098.90
           C 85.34,1098.90 151.61,1098.90 151.61,1098.90
             151.61,1098.90 151.61,1074.55 151.61,1074.55
             151.61,1074.55 85.34,1074.55 85.34,1074.55
             85.34,1074.55 85.34,1098.90 85.34,1098.90 Z
           M 58.88,1199.73
           C 58.88,1199.73 177.88,1199.73 177.88,1199.73
             177.88,1199.73 177.88,1307.73 177.88,1307.73
             177.88,1307.73 156.15,1307.73 156.15,1307.73
             156.15,1307.73 156.15,1219.55 156.15,1219.55
             156.15,1219.55 128.88,1219.55 128.88,1219.55
             128.88,1219.55 128.88,1307.73 128.88,1307.73
             128.88,1307.73 107.15,1307.73 107.15,1307.73
             107.15,1307.73 107.15,1219.55 107.15,1219.55
             107.15,1219.55 80.62,1219.55 80.62,1219.55
             80.62,1219.55 80.62,1307.73 80.62,1307.73
             80.62,1307.73 58.88,1307.73 58.88,1307.73
             58.88,1307.73 58.88,1199.73 58.88,1199.73 Z
           M 63.61,1408.55
           C 63.61,1408.55 63.61,1388.73 63.61,1388.73
             63.61,1388.73 173.34,1388.73 173.34,1388.73
             173.34,1388.73 173.34,1496.73 173.34,1496.73
             173.34,1496.73 63.61,1496.73 63.61,1496.73
             63.61,1496.73 63.61,1432.73 63.61,1432.73
             63.61,1432.73 151.61,1432.73 151.61,1432.73
             151.61,1432.73 151.61,1408.55 151.61,1408.55
             151.61,1408.55 63.61,1408.55 63.61,1408.55 Z
           M 85.34,1476.90
           C 85.34,1476.90 151.61,1476.90 151.61,1476.90
             151.61,1476.90 151.61,1452.55 151.61,1452.55
             151.61,1452.55 85.34,1452.55 85.34,1452.55
             85.34,1452.55 85.34,1476.90 85.34,1476.90 Z
           M 40.50,1709.26
           C 40.50,1709.26 40.50,1554.35 40.50,1554.35
             40.50,1554.35 195.50,1554.35 195.50,1554.35
             195.50,1554.35 195.50,1709.26 195.50,1709.26
             195.50,1709.26 174.91,1709.26 174.91,1709.26
             174.91,1709.26 174.91,1573.26 174.91,1573.26
             174.91,1573.26 128.50,1573.26 128.50,1573.26
             128.50,1573.26 128.50,1709.26 128.50,1709.26
             128.50,1709.26 40.50,1709.26 40.50,1709.26 Z
           M 61.09,1690.35
           C 61.09,1690.35 107.91,1690.35 107.91,1690.35
             107.91,1690.35 107.91,1573.26 107.91,1573.26
             107.91,1573.26 61.09,1573.26 61.09,1573.26
             61.09,1573.26 61.09,1690.35 61.09,1690.35 Z
           M 89.14,1770.30
           C 89.14,1770.30 69.30,1770.30 69.30,1770.30
             69.30,1770.30 69.30,1761.78 69.30,1761.78
             69.30,1761.78 32.44,1761.78 32.44,1761.78
             32.44,1761.78 32.44,1743.83 32.44,1743.83
             32.44,1743.83 69.30,1743.83 69.30,1743.83
             69.30,1743.83 69.30,1734.38 69.30,1734.38
             69.30,1734.38 89.14,1734.38 89.14,1734.38
             89.14,1734.38 89.14,1743.83 89.14,1743.83
             89.14,1743.83 143.97,1743.83 143.97,1743.83
             143.97,1743.83 143.97,1734.38 143.97,1734.38
             143.97,1734.38 163.81,1734.38 163.81,1734.38
             163.81,1734.38 163.81,1743.83 163.81,1743.83
             163.81,1743.83 202.56,1743.83 202.56,1743.83
             202.56,1743.83 202.56,1761.78 202.56,1761.78
             202.56,1761.78 163.81,1761.78 163.81,1761.78
             163.81,1761.78 163.81,1770.30 163.81,1770.30
             163.81,1770.30 143.97,1770.30 143.97,1770.30
             143.97,1770.30 143.97,1761.78 143.97,1761.78
             143.97,1761.78 89.14,1761.78 89.14,1761.78
             89.14,1761.78 89.14,1770.30 89.14,1770.30 Z
           M 68.36,1872.30
           C 68.36,1872.30 32.44,1872.30 32.44,1872.30
             32.44,1872.30 32.44,1854.73 32.44,1854.73
             32.44,1854.73 49.45,1854.73 49.45,1854.73
             49.45,1854.73 49.45,1836.30 49.45,1836.30
             49.45,1836.30 32.44,1836.30 32.44,1836.30
             32.44,1836.30 32.44,1777.28 32.44,1777.28
             32.44,1777.28 202.56,1777.28 202.56,1777.28
             202.56,1777.28 202.56,1836.30 202.56,1836.30
             202.56,1836.30 184.98,1836.30 184.98,1836.30
             184.98,1836.30 184.98,1854.73 184.98,1854.73
             184.98,1854.73 202.56,1854.73 202.56,1854.73
             202.56,1854.73 202.56,1872.30 202.56,1872.30
             202.56,1872.30 166.08,1872.30 166.08,1872.30
             166.08,1872.30 166.08,1836.30 166.08,1836.30
             166.08,1836.30 68.36,1836.30 68.36,1836.30
             68.36,1836.30 68.36,1872.30 68.36,1872.30 Z
           M 183.66,1794.30
           C 183.66,1794.30 51.34,1794.30 51.34,1794.30
             51.34,1794.30 51.34,1819.28 51.34,1819.28
             51.34,1819.28 183.66,1819.28 183.66,1819.28
             183.66,1819.28 183.66,1794.30 183.66,1794.30 Z
           M 126.39,1872.30
           C 126.39,1872.30 126.39,1888.72 126.39,1888.72
             126.39,1888.72 203.50,1888.72 203.50,1888.72
             203.50,1888.72 203.50,1906.30 203.50,1906.30
             203.50,1906.30 31.50,1906.30 31.50,1906.30
             31.50,1906.30 31.50,1888.72 31.50,1888.72
             31.50,1888.72 106.53,1888.72 106.53,1888.72
             106.53,1888.72 106.53,1872.30 106.53,1872.30
             106.53,1872.30 79.70,1872.30 79.70,1872.30
             79.70,1872.30 79.70,1854.92 79.70,1854.92
             79.70,1854.92 106.53,1854.92 106.53,1854.92
             106.53,1854.92 106.53,1843.92 106.53,1843.92
             106.53,1843.92 126.39,1843.92 126.39,1843.92
             126.39,1843.92 126.39,1854.92 126.39,1854.92
             126.39,1854.92 154.73,1854.92 154.73,1854.92
             154.73,1854.92 154.73,1872.30 154.73,1872.30
             154.73,1872.30 126.39,1872.30 126.39,1872.30 Z" />
</svg>
