<?xml version="1.0" encoding="UTF-8" standalone="no"?>
<!DOCTYPE svg PUBLIC "-//W3C//DTD SVG 20010904//EN"
              "http://www.w3.org/TR/2001/REC-SVG-20010904/DTD/svg10.dtd">

<svg xmlns="http://www.w3.org/2000/svg"
     width="0.87in" height="3.42667in"
     viewBox="0 0 261 1028">
  <path id="パス #1"
        fill="none" stroke="black" stroke-width="1"
        d="M 113.75,10.95
           C 113.75,10.95 113.75,34.00 113.75,34.00
             113.75,34.00 247.50,34.00 247.50,34.00
             247.50,34.00 247.50,59.50 247.50,59.50
             247.50,59.50 113.75,59.50 113.75,59.50
             113.75,59.50 113.75,243.00 113.75,243.00
             113.75,243.00 85.70,243.00 85.70,243.00
             85.70,243.00 85.70,10.95 85.70,10.95
             85.70,10.95 113.75,10.95 113.75,10.95 Z
           M 12.80,13.52
           C 12.80,13.52 63.80,13.52 63.80,13.52
             63.80,13.52 63.80,243.00 63.80,243.00
             63.80,243.00 35.75,243.00 35.75,243.00
             35.75,243.00 35.75,39.09 35.75,39.09
             35.75,39.09 12.80,39.09 12.80,39.09
             12.80,39.09 12.80,13.52 12.80,13.52 Z
           M 174.83,108.00
           C 174.83,108.00 132.75,108.00 132.75,108.00
             132.75,108.00 132.75,82.50 132.75,82.50
             132.75,82.50 247.50,82.50 247.50,82.50
             247.50,82.50 247.50,108.00 247.50,108.00
             247.50,108.00 202.88,108.00 202.88,108.00
             202.88,108.00 202.88,216.23 202.88,216.23
             202.88,216.23 247.50,216.23 247.50,216.23
             247.50,216.23 247.50,243.00 247.50,243.00
             247.50,243.00 132.75,243.00 132.75,243.00
             132.75,243.00 132.75,216.23 132.75,216.23
             132.75,216.23 174.83,216.23 174.83,216.23
             174.83,216.23 174.83,108.00 174.83,108.00 Z
           M 199.05,452.00
           C 199.05,452.00 234.75,452.00 234.75,452.00
             234.75,452.00 234.75,478.27 234.75,478.27
             234.75,478.27 58.80,478.27 58.80,478.27
             58.80,478.27 58.80,452.00 58.80,452.00
             58.80,452.00 170.23,452.00 170.23,452.00
             170.23,452.00 170.23,342.73 170.23,342.73
             170.23,342.73 87.61,342.73 87.61,342.73
             87.61,342.73 87.61,407.00 87.61,407.00
             87.61,407.00 58.80,407.00 58.80,407.00
             58.80,407.00 58.80,282.05 58.80,282.05
             58.80,282.05 87.61,282.05 87.61,282.05
             87.61,282.05 87.61,316.47 87.61,316.47
             87.61,316.47 199.05,316.47 199.05,316.47
             199.05,316.47 199.05,452.00 199.05,452.00 Z
           M 245.25,561.50
           C 245.25,561.50 245.25,587.00 245.25,587.00
             245.25,587.00 152.17,587.00 152.17,587.00
             156.25,600.92 162.97,614.92 172.31,629.00
             181.66,643.09 192.72,655.90 205.47,667.44
             218.22,678.98 231.48,688.06 245.25,694.67
             245.25,694.67 245.25,728.27 245.25,728.27
             222.47,716.55 201.89,701.45 183.53,682.97
             165.18,664.48 151.83,644.03 143.50,621.62
             143.50,621.62 143.50,755.00 143.50,755.00
             143.50,755.00 115.97,755.00 115.97,755.00
             115.97,755.00 115.97,621.62 115.97,621.62
             107.63,643.69 94.41,664.09 76.31,682.84
             58.21,701.59 38.02,716.73 15.75,728.27
             15.75,728.27 15.75,694.67 15.75,694.67
             29.52,688.06 42.65,679.03 55.14,667.58
             67.64,656.12 78.44,643.35 87.53,629.27
             96.62,615.17 103.21,601.09 107.30,587.00
             107.30,587.00 15.75,587.00 15.75,587.00
             15.75,587.00 15.75,561.50 15.75,561.50
             15.75,561.50 115.45,561.50 115.45,561.50
             115.45,561.50 115.45,521.67 115.45,521.67
             115.45,521.67 144.02,521.67 144.02,521.67
             144.02,521.67 144.02,561.50 144.02,561.50
             144.02,561.50 245.25,561.50 245.25,561.50 Z
           M 143.34,776.92
           C 143.34,776.92 143.34,794.77 143.34,794.77
             143.34,794.77 245.53,794.77 245.53,794.77
             245.53,794.77 245.53,863.62 245.53,863.62
             245.53,863.62 218.75,863.62 218.75,863.62
             218.75,863.62 218.75,819.00 218.75,819.00
             218.75,819.00 42.53,819.00 42.53,819.00
             42.53,819.00 42.53,863.62 42.53,863.62
             42.53,863.62 15.75,863.62 15.75,863.62
             15.75,863.62 15.75,794.77 15.75,794.77
             15.75,794.77 114.02,794.77 114.02,794.77
             114.02,794.77 114.02,776.92 114.02,776.92
             114.02,776.92 143.34,776.92 143.34,776.92 Z
           M 163.98,909.41
           C 164.84,921.80 170.67,933.39 181.48,944.17
             192.30,954.95 207.44,964.09 226.88,971.56
             234.20,974.45 240.41,976.48 245.53,977.67
             245.53,977.67 245.53,1005.91 245.53,1005.91
             241.10,1004.89 235.91,1003.38 229.94,1001.34
             214.09,995.58 200.80,989.45 190.06,982.94
             179.32,976.43 170.55,969.03 163.73,960.75
             163.73,960.75 163.73,1011.00 163.73,1011.00
             163.73,1011.00 15.75,1011.00 15.75,1011.00
             15.75,1011.00 15.75,986.27 15.75,986.27
             15.75,986.27 136.97,986.27 136.97,986.27
             136.97,986.27 136.97,961.00 136.97,961.00
             136.97,961.00 15.75,961.00 15.75,961.00
             15.75,961.00 15.75,936.27 15.75,936.27
             15.75,936.27 136.97,936.27 136.97,936.27
             136.97,936.27 136.97,911.22 136.97,911.22
             136.97,911.22 15.75,911.22 15.75,911.22
             15.75,911.22 15.75,886.50 15.75,886.50
             15.75,886.50 136.97,886.50 136.97,886.50
             136.97,886.50 136.97,862.03 136.97,862.03
             136.97,862.03 61.75,862.03 61.75,862.03
             61.75,862.03 61.75,837.81 61.75,837.81
             61.75,837.81 199.44,837.81 199.44,837.81
             199.44,837.81 199.44,862.03 199.44,862.03
             199.44,862.03 163.73,862.03 163.73,862.03
             163.73,862.03 163.73,904.83 163.73,904.83
             163.73,904.83 163.98,909.41 163.98,909.41 Z
           M 245.53,913.00
           C 245.53,913.00 179.05,913.00 179.05,913.00
             179.05,913.00 179.05,887.50 179.05,887.50
             179.05,887.50 245.53,887.50 245.53,887.50
             245.53,887.50 245.53,913.00 245.53,913.00 Z" />
</svg>
